<svg xmlns="http://www.w3.org/2000/svg" viewBox="0 0 32 32" fill="none">
  <!-- Cherry stem -->
  <path d="M16 4c-1.5 0-2.5 1-2.5 2.5 0 1.5 1 2.5 2.5 2.5s2.5-1 2.5-2.5C18.5 5 17.5 4 16 4z" fill="#8B4513"/>
  <path d="M16 2c-2 0-3.5 1.5-3.5 3.5 0 2 1.5 3.5 3.5 3.5s3.5-1.5 3.5-3.5C19.5 3.5 18 2 16 2z" fill="#654321"/>

  <!-- Left cherry -->
  <circle cx="12" cy="16" r="8" fill="#DC143C"/>
  <circle cx="12" cy="16" r="6" fill="#FF1493"/>
  <circle cx="10" cy="14" r="1.5" fill="#FFF"/>
  <circle cx="10" cy="14" r="0.8" fill="#000"/>

  <!-- Right cherry -->
  <circle cx="20" cy="16" r="8" fill="#DC143C"/>
  <circle cx="20" cy="16" r="6" fill="#FF1493"/>
  <circle cx="18" cy="14" r="1.5" fill="#FFF"/>
  <circle cx="18" cy="14" r="0.8" fill="#000"/>

  <!-- Highlight -->
  <circle cx="11" cy="13" r="1" fill="#FFF" opacity="0.7"/>
  <circle cx="19" cy="13" r="1" fill="#FFF" opacity="0.7"/>
</svg>